<svg xmlns="http://www.w3.org/2000/svg" viewBox="0 0 512 512">
  <defs>
    <linearGradient id="shieldGrad" x1="0%" y1="0%" x2="0%" y2="100%">
      <stop offset="0%" style="stop-color:#ca8a04;stop-opacity:1" />
      <stop offset="100%" style="stop-color:#854d0e;stop-opacity:1" />
    </linearGradient>
  </defs>
  <path d="M256,40 C190,40 100,55 60,95 C60,215 60,300 256,480 C452,300 452,210 452,95 C412,55 322,40 256,40 Z" fill="url(#shieldGrad)" />
  <path d="M256,60 C210,60 110,75 80,110 C80,210 80,280 256,440 C432,280 432,210 432,110 C402,75 302,60 256,60 Z" fill="white"/>
  
  <!-- Electrical/Lightning Symbol -->
  <path d="M280,150 L180,280 L250,280 L220,400 L320,270 L250,270 Z" fill="#ca8a04" />
</svg>
