<svg xmlns="http://www.w3.org/2000/svg" viewBox="0 0 512 512">
  <defs>
    <linearGradient id="shieldGrad" x1="0%" y1="0%" x2="0%" y2="100%">
      <stop offset="0%" style="stop-color:#0b468a;stop-opacity:1" />
      <stop offset="100%" style="stop-color:#062d59;stop-opacity:1" />
    </linearGradient>
  </defs>
  <path d="M256,40 C190,40 100,55 60,95 C60,215 60,300 256,480 C452,300 452,210 452,95 C412,55 322,40 256,40 Z" fill="url(#shieldGrad)" />
  <path d="M256,60 C210,60 110,75 80,110 C80,210 80,280 256,440 C432,280 432,210 432,110 C402,75 302,60 256,60 Z" fill="white"/>
  
  <!-- Engineering/Construction Gear -->
  <g transform="translate(186, 150) scale(0.9)">
    <path d="M70,0 L80,20 L100,20 L110,40 L130,40 L130,60 L140,70 L140,90 L130,100 L130,120 L110,120 L100,140 L80,140 L70,160 L50,160 L40,140 L20,140 L10,120 L-10,120 L-10,100 L-20,90 L-20,70 L-10,60 L-10,40 L10,40 L20,20 L40,20 L50,0 Z" fill="#0b468a" />
    <circle cx="70" cy="80" r="30" fill="white" />
    <circle cx="70" cy="80" r="15" fill="#0b468a" />
  </g>
</svg>
