<svg xmlns="http://www.w3.org/2000/svg" viewBox="0 0 512 512">
  <defs>
    <linearGradient id="shieldGrad" x1="0%" y1="0%" x2="0%" y2="100%">
      <stop offset="0%" style="stop-color:#4338ca;stop-opacity:1" />
      <stop offset="100%" style="stop-color:#312e81;stop-opacity:1" />
    </linearGradient>
  </defs>
  <path d="M256,40 C190,40 100,55 60,95 C60,215 60,300 256,480 C452,300 452,210 452,95 C412,55 322,40 256,40 Z" fill="url(#shieldGrad)" />
  <path d="M256,60 C210,60 110,75 80,110 C80,210 80,280 256,440 C432,280 432,210 432,110 C402,75 302,60 256,60 Z" fill="white"/>
  
  <!-- Planning/Grid Symbol -->
  <g transform="translate(176, 176)">
    <rect x="0" y="0" width="160" height="160" fill="none" stroke="#4338ca" stroke-width="12" />
    <line x1="80" y1="0" x2="80" y2="160" stroke="#4338ca" stroke-width="8" />
    <line x1="0" y1="80" x2="160" y2="80" stroke="#4338ca" stroke-width="8" />
    <rect x="40" y="40" width="80" height="80" fill="#4338ca" opacity="0.2" />
  </g>
</svg>
