<svg xmlns="http://www.w3.org/2000/svg" viewBox="0 0 512 512">
  <defs>
    <linearGradient id="shieldGrad" x1="0%" y1="0%" x2="0%" y2="100%">
      <stop offset="0%" style="stop-color:#166534;stop-opacity:1" />
      <stop offset="100%" style="stop-color:#064e3b;stop-opacity:1" />
    </linearGradient>
  </defs>
  <path d="M256,40 C190,40 100,55 60,95 C60,215 60,300 256,480 C452,300 452,210 452,95 C412,55 322,40 256,40 Z" fill="url(#shieldGrad)" />
  <path d="M256,60 C210,60 110,75 80,110 C80,210 80,280 256,440 C432,280 432,210 432,110 C402,75 302,60 256,60 Z" fill="white"/>
  
  <!-- Waste/Environment Symbol -->
  <g transform="translate(176, 170) scale(0.8)">
    <path d="M80,0 L160,140 L0,140 Z" fill="none" stroke="#166534" stroke-width="20" stroke-linecap="round" stroke-linejoin="round" />
    <path d="M80,40 L120,110 L40,110 Z" fill="#166534" />
  </g>
</svg>
