<svg xmlns="http://www.w3.org/2000/svg" viewBox="0 0 512 512">
  <defs>
    <linearGradient id="shieldGrad" x1="0%" y1="0%" x2="0%" y2="100%">
      <stop offset="0%" style="stop-color:#075985;stop-opacity:1" />
      <stop offset="100%" style="stop-color:#0c4a6e;stop-opacity:1" />
    </linearGradient>
  </defs>
  <path d="M256,40 C190,40 100,55 60,95 C60,215 60,300 256,480 C452,300 452,210 452,95 C412,55 322,40 256,40 Z" fill="url(#shieldGrad)" />
  <path d="M256,60 C210,60 110,75 80,110 C80,210 80,280 256,440 C432,280 432,210 432,110 C402,75 302,60 256,60 Z" fill="white"/>
  
  <!-- Water Drop Symbol -->
  <path d="M256,150 Q306,250 306,300 A50,50 0 0 1 206,300 Q206,250 256,150" fill="#075985" />
</svg>
